<?xml version="1.0" encoding="UTF-8" standalone="no"?>
<svg
   xmlns:dc="http://purl.org/dc/elements/1.1/"
   xmlns:cc="http://creativecommons.org/ns#"
   xmlns:rdf="http://www.w3.org/1999/02/22-rdf-syntax-ns#"
   xmlns:svg="http://www.w3.org/2000/svg"
   xmlns="http://www.w3.org/2000/svg"
   xmlns:sodipodi="http://sodipodi.sourceforge.net/DTD/sodipodi-0.dtd"
   xmlns:inkscape="http://www.inkscape.org/namespaces/inkscape"
   width="96"
   height="96"
   viewBox="0 0 25.4 25.400001"
   version="1.1"
   id="svg8"
   inkscape:version="1.0.2 (e86c8708, 2021-01-15)"
   sodipodi:docname="sound_wave.svg">
  <defs
     id="defs2" />
  <sodipodi:namedview
     id="base"
     pagecolor="#ffffff"
     bordercolor="#666666"
     borderopacity="1.0"
     inkscape:pageopacity="0.0"
     inkscape:pageshadow="2"
     inkscape:zoom="1.4"
     inkscape:cx="312.95226"
     inkscape:cy="69.829386"
     inkscape:document-units="px"
     inkscape:current-layer="svg8"
     inkscape:document-rotation="0"
     showgrid="false"
     units="px"
     inkscape:window-width="1920"
     inkscape:window-height="1035"
     inkscape:window-x="1280"
     inkscape:window-y="23"
     inkscape:window-maximized="0">
    <inkscape:grid
       type="xygrid"
       id="grid839" />
  </sodipodi:namedview>
  <metadata
     id="metadata5">
    <rdf:RDF>
      <cc:Work
         rdf:about="">
        <dc:format>image/svg+xml</dc:format>
        <dc:type
           rdf:resource="http://purl.org/dc/dcmitype/StillImage" />
        <dc:title></dc:title>
      </cc:Work>
    </rdf:RDF>
  </metadata>
  <g
     inkscape:label="Layer 1"
     inkscape:groupmode="layer"
     id="layer1" />
  <path
     id="speaker0"
     style="fill:#000000;fill-opacity:0.05;stroke-width:1"
     d="M 6.406034,3.7062366 5.6990997,2.9977522 A 7.4759999,7.4759999 0 0 1 0.3960632,5.1950354 c -2.071,0 -3.9460356,-0.8402824 -5.3030355,-2.1972832 L -5.6139054,3.7062366 A 8.4729999,8.4729999 0 0 0 0.3960632,6.1960079 8.4729999,8.4729999 0 0 0 6.406034,3.7062366 Z M 4.9921663,2.2908179 4.2852319,1.5838845 A 5.483,5.483 0 0 1 0.3960632,3.1951563 5.483,5.483 0 0 1 -3.4941384,1.5849175 l -0.7058999,0.7059004 a 6.48,6.48 0 0 0 4.5961015,1.904278 6.48,6.48 0 0 0 4.5961031,-1.904278 z M 3.3891625,0.706935 2.6822281,7.0104167e-7 A 3.489,3.489 0 0 1 0.2069272,1.0247452 3.4899999,3.4899999 0 0 1 -2.2678568,7.0104167e-7 L -2.9747904,0.706935 A 4.486,4.486 0 0 0 0.2069272,2.0246847 4.486,4.486 0 0 0 3.3891625,0.706935 Z" />
  <path
     id="speaker0-4"
     style="fill:#000000;fill-opacity:0.05;stroke-width:1"
     d="m 18.89187,3.7552513 -0.706934,-0.708483 a 7.4759999,7.4759999 0 0 1 -5.303035,2.197281 c -2.070999,0 -3.9460346,-0.840281 -5.3030345,-2.197281 l -0.7069331,0.708483 a 8.4729999,8.4729999 0 0 0 6.0099676,2.48977 8.4729999,8.4729999 0 0 0 6.009969,-2.48977 z m -1.413867,-1.415417 -0.706934,-0.706933 a 5.483,5.483 0 0 1 -3.889168,1.611271 5.483,5.483 0 0 1 -3.8902006,-1.610238 l -0.7058999,0.7059 a 6.48,6.48 0 0 0 4.5961005,1.904276 6.48,6.48 0 0 0 4.596102,-1.904276 z M 15.875,0.7559523 15.168066,0.04901734 A 3.489,3.489 0 0 1 12.692765,1.0737623 3.4899999,3.4899999 0 0 1 10.217982,0.04901734 L 9.5110487,0.7559523 A 4.486,4.486 0 0 0 12.692765,2.0737013 4.486,4.486 0 0 0 15.875,0.7559523 Z" />
  <path
     id="speaker0-3"
     style="fill:#000000;fill-opacity:0.05;stroke-width:1"
     d="M 31.541447,3.7062396 30.834513,2.9977552 a 7.4759999,7.4759999 0 0 1 -5.303035,2.1972832 c -2.071,0 -3.946036,-0.8402824 -5.303035,-2.1972832 l -0.706934,0.7084844 a 8.4729999,8.4729999 0 0 0 6.009969,2.4897713 8.4729999,8.4729999 0 0 0 6.009969,-2.4897713 z M 30.12758,2.2908209 29.420646,1.5838875 A 5.483,5.483 0 0 1 25.531478,3.1951593 5.483,5.483 0 0 1 21.641277,1.5849205 l -0.7059,0.7059004 a 6.48,6.48 0 0 0 4.596101,1.904278 6.48,6.48 0 0 0 4.596102,-1.904278 z M 28.524577,0.706938 27.817643,3.7010417e-6 A 3.489,3.489 0 0 1 25.342342,1.0247482 3.4899999,3.4899999 0 0 1 22.867558,3.7010417e-6 L 22.160624,0.706938 a 4.486,4.486 0 0 0 3.181718,1.3177497 4.486,4.486 0 0 0 3.182235,-1.3177497 z" />
  <path
     id="speaker0-5"
     style="fill:#000000;fill-opacity:0.05;stroke-width:1"
     d="M -0.13214134,10.222116 -0.8390753,9.5136307 a 7.4759999,7.4759999 0 0 1 -5.303037,2.1972833 c -2.071,0 -3.9460347,-0.840282 -5.3030347,-2.1972833 l -0.706933,0.7084853 a 8.4729999,8.4729999 0 0 0 6.0099677,2.489771 8.4729999,8.4729999 0 0 0 6.00997096,-2.489771 z M -1.5460093,8.8066967 -2.2529433,8.0997627 a 5.483,5.483 0 0 1 -3.889169,1.6112721 5.483,5.483 0 0 1 -3.8902007,-1.6102391 l -0.7059,0.705901 a 6.48,6.48 0 0 0 4.5961007,1.9042783 6.48,6.48 0 0 0 4.596103,-1.9042783 z m -1.603004,-1.583883 -0.706934,-0.706934 a 3.489,3.489 0 0 1 -2.475301,1.024744 3.4899999,3.4899999 0 0 1 -2.474784,-1.024744 l -0.706933,0.706934 a 4.486,4.486 0 0 0 3.181717,1.31775 4.486,4.486 0 0 0 3.182235,-1.31775 z" />
  <path
     id="speaker0-4-0"
     style="fill:#000000;fill-opacity:0.05;stroke-width:1"
     d="M 12.353695,10.27113 11.646761,9.5626467 A 7.4759999,7.4759999 0 0 1 6.3437257,11.759928 c -2.070999,0 -3.946035,-0.840281 -5.303035,-2.1972813 L 0.33375766,10.27113 A 8.4729999,8.4729999 0 0 0 6.3437257,12.7609 8.4729999,8.4729999 0 0 0 12.353695,10.27113 Z M 10.939828,8.8557127 10.232894,8.1487797 A 5.483,5.483 0 0 1 6.3437257,9.7600508 5.483,5.483 0 0 1 2.4535247,8.1498127 l -0.7059,0.7059 A 6.48,6.48 0 0 0 6.3437257,10.759989 6.48,6.48 0 0 0 10.939828,8.8557127 Z M 9.3368247,7.2718307 8.6298907,6.5648957 a 3.489,3.489 0 0 1 -2.475301,1.024745 3.4899999,3.4899999 0 0 1 -2.474783,-1.024745 l -0.706933,0.706935 a 4.486,4.486 0 0 0 3.181716,1.317749 4.486,4.486 0 0 0 3.182235,-1.317749 z" />
  <path
     id="speaker0-3-2"
     style="fill:#000000;fill-opacity:0.05;stroke-width:1"
     d="M 25.003272,10.222119 24.296338,9.5136337 a 7.4759999,7.4759999 0 0 1 -5.303035,2.1972833 c -2.071,0 -3.946036,-0.840282 -5.303035,-2.1972833 l -0.706934,0.7084853 a 8.4729999,8.4729999 0 0 0 6.009969,2.489771 8.4729999,8.4729999 0 0 0 6.009969,-2.489771 z M 23.589405,8.8066997 22.882471,8.0997657 A 5.483,5.483 0 0 1 18.993303,9.7110378 5.483,5.483 0 0 1 15.103102,8.1007987 l -0.7059,0.705901 a 6.48,6.48 0 0 0 4.596101,1.9042783 6.48,6.48 0 0 0 4.596102,-1.9042783 z m -1.603003,-1.583883 -0.706934,-0.706934 a 3.489,3.489 0 0 1 -2.475301,1.024744 3.4899999,3.4899999 0 0 1 -2.474784,-1.024744 l -0.706934,0.706934 a 4.486,4.486 0 0 0 3.181718,1.31775 4.486,4.486 0 0 0 3.182235,-1.31775 z" />
  <path
     id="speaker0-59"
     style="fill:#000000;fill-opacity:0.05;stroke-width:1"
     d="M 6.1607549,16.224595 5.4538205,15.51611 a 7.4759999,7.4759999 0 0 1 -5.3030379,2.197283 c -2.071,0 -3.9460348,-0.840282 -5.3030348,-2.197283 l -0.706933,0.708485 a 8.4729999,8.4729999 0 0 0 6.0099678,2.489771 8.4729999,8.4729999 0 0 0 6.0099723,-2.489771 z M 4.7468862,14.809176 4.0399518,14.102242 a 5.483,5.483 0 0 1 -3.8891692,1.611272 5.483,5.483 0 0 1 -3.8902008,-1.610239 l -0.7059,0.705901 a 6.48,6.48 0 0 0 4.5961008,1.904278 6.48,6.48 0 0 0 4.5961036,-1.904278 z M 3.1438816,13.225293 2.4369476,12.518359 a 3.489,3.489 0 0 1 -2.475301,1.024744 3.4899999,3.4899999 0 0 1 -2.4747838,-1.024744 l -0.706933,0.706934 a 4.486,4.486 0 0 0 3.1817168,1.31775 4.486,4.486 0 0 0 3.182235,-1.31775 z" />
  <path
     id="speaker0-4-3"
     style="fill:#000000;fill-opacity:0.05;stroke-width:1"
     d="m 18.646593,16.273609 -0.706934,-0.708483 a 7.4759999,7.4759999 0 0 1 -5.303035,2.197281 c -2.070999,0 -3.9460357,-0.840281 -5.3030365,-2.197281 l -0.7069333,0.708483 a 8.4729999,8.4729999 0 0 0 6.0099698,2.48977 8.4729999,8.4729999 0 0 0 6.009969,-2.48977 z M 17.232726,14.858192 16.525792,14.151259 A 5.483,5.483 0 0 1 12.636624,15.76253 5.483,5.483 0 0 1 8.7464223,14.152292 l -0.7059004,0.7059 a 6.48,6.48 0 0 0 4.5961021,1.904276 6.48,6.48 0 0 0 4.596102,-1.904276 z M 15.629723,13.27431 14.922789,12.567375 A 3.489,3.489 0 0 1 12.447488,13.59212 3.4899999,3.4899999 0 0 1 9.9727049,12.567375 L 9.2657716,13.27431 a 4.486,4.486 0 0 0 3.1817164,1.317749 4.486,4.486 0 0 0 3.182235,-1.317749 z" />
  <path
     id="speaker0-3-9"
     style="fill:#000000;fill-opacity:0.05;stroke-width:1"
     d="m 31.29617,16.224598 -0.706934,-0.708485 a 7.4759999,7.4759999 0 0 1 -5.303035,2.197283 c -2.071,0 -3.946036,-0.840282 -5.303035,-2.197283 l -0.706934,0.708485 a 8.4729999,8.4729999 0 0 0 6.009969,2.489771 8.4729999,8.4729999 0 0 0 6.009969,-2.489771 z M 29.882303,14.809179 29.175369,14.102245 A 5.483,5.483 0 0 1 25.286201,15.713517 5.483,5.483 0 0 1 21.396,14.103278 l -0.7059,0.705901 a 6.48,6.48 0 0 0 4.596101,1.904278 6.48,6.48 0 0 0 4.596102,-1.904278 z M 28.2793,13.225296 27.572366,12.518362 a 3.489,3.489 0 0 1 -2.475301,1.024744 3.4899999,3.4899999 0 0 1 -2.474784,-1.024744 l -0.706934,0.706934 a 4.486,4.486 0 0 0 3.181718,1.31775 4.486,4.486 0 0 0 3.182235,-1.31775 z" />
  <path
     id="speaker0-5-6"
     style="fill:#000000;fill-opacity:0.05;stroke-width:1"
     d="m -0.3774214,22.740474 -0.706934,-0.708485 a 7.4759999,7.4759999 0 0 1 -5.3030368,2.197283 c -2.0709998,0 -3.9460348,-0.840282 -5.3030338,-2.197283 l -0.706933,0.708485 a 8.4729999,8.4729999 0 0 0 6.0099668,2.489771 8.4729999,8.4729999 0 0 0 6.0099708,-2.489771 z m -1.413868,-1.415419 -0.7069338,-0.706934 a 5.483,5.483 0 0 1 -3.889169,1.611272 5.483,5.483 0 0 1 -3.8902008,-1.610239 l -0.705899,0.705901 a 6.48,6.48 0 0 0 4.5960998,1.904278 6.48,6.48 0 0 0 4.5961028,-1.904278 z m -1.6030038,-1.583883 -0.706934,-0.706934 a 3.489,3.489 0 0 1 -2.475301,1.024744 3.4899999,3.4899999 0 0 1 -2.4747838,-1.024744 l -0.706933,0.706934 a 4.486,4.486 0 0 0 3.1817168,1.31775 4.486,4.486 0 0 0 3.182235,-1.31775 z" />
  <path
     id="speaker0-4-0-6"
     style="fill:#000000;fill-opacity:0.05;stroke-width:1"
     d="m 12.108418,22.789488 -0.706934,-0.708483 a 7.4759999,7.4759999 0 0 1 -5.3030371,2.197281 c -2.0710001,0 -3.9460363,-0.840281 -5.3030363,-2.197281 l -0.706933,0.708483 a 8.4729999,8.4729999 0 0 0 6.0099693,2.48977 8.4729999,8.4729999 0 0 0 6.0099711,-2.48977 z M 10.694551,21.374071 9.9876169,20.667138 a 5.483,5.483 0 0 1 -3.88917,1.611271 5.483,5.483 0 0 1 -3.8902023,-1.610238 l -0.7059,0.7059 a 6.48,6.48 0 0 0 4.5961023,1.904276 6.48,6.48 0 0 0 4.5961041,-1.904276 z M 9.0915475,19.790189 8.3846131,19.083254 A 3.489,3.489 0 0 1 5.9093108,20.107999 3.4899999,3.4899999 0 0 1 3.4345265,19.083254 l -0.7069329,0.706935 a 4.486,4.486 0 0 0 3.1817172,1.317749 4.486,4.486 0 0 0 3.1822367,-1.317749 z" />
  <path
     id="speaker0-3-2-4"
     style="fill:#000000;fill-opacity:0.05;stroke-width:1"
     d="m 24.757995,22.740477 -0.706934,-0.708485 a 7.4759999,7.4759999 0 0 1 -5.303035,2.197283 c -2.071,0 -3.946036,-0.840282 -5.303035,-2.197283 l -0.706934,0.708485 a 8.4729999,8.4729999 0 0 0 6.009969,2.489771 8.4729999,8.4729999 0 0 0 6.009969,-2.489771 z m -1.413867,-1.415419 -0.706934,-0.706934 a 5.483,5.483 0 0 1 -3.889168,1.611272 5.483,5.483 0 0 1 -3.890201,-1.610239 l -0.7059,0.705901 a 6.48,6.48 0 0 0 4.596101,1.904278 6.48,6.48 0 0 0 4.596102,-1.904278 z m -1.603003,-1.583883 -0.706934,-0.706934 a 3.489,3.489 0 0 1 -2.475301,1.024744 3.4899999,3.4899999 0 0 1 -2.474784,-1.024744 l -0.706934,0.706934 a 4.486,4.486 0 0 0 3.181718,1.31775 4.486,4.486 0 0 0 3.182235,-1.31775 z" />
</svg>
