<?xml version="1.0" encoding="UTF-8" standalone="no"?>
<svg
   xmlns:dc="http://purl.org/dc/elements/1.1/"
   xmlns:cc="http://creativecommons.org/ns#"
   xmlns:rdf="http://www.w3.org/1999/02/22-rdf-syntax-ns#"
   xmlns:svg="http://www.w3.org/2000/svg"
   xmlns="http://www.w3.org/2000/svg"
   xmlns:xlink="http://www.w3.org/1999/xlink"
   xmlns:sodipodi="http://sodipodi.sourceforge.net/DTD/sodipodi-0.dtd"
   xmlns:inkscape="http://www.inkscape.org/namespaces/inkscape"
   width="96"
   height="96"
   viewBox="0 0 25.4 25.400001"
   version="1.1"
   id="svg8"
   inkscape:version="1.0.2 (e86c8708, 2021-01-15)"
   sodipodi:docname="sound_wave_fade.svg">
  <defs
     id="defs2">
    <linearGradient
       inkscape:collect="always"
       id="linearGradient950">
      <stop
         style="stop-color:#000000;stop-opacity:1;"
         offset="0"
         id="stop946" />
      <stop
         style="stop-color:#000000;stop-opacity:0;"
         offset="1"
         id="stop948" />
    </linearGradient>
    <linearGradient
       inkscape:collect="always"
       xlink:href="#linearGradient950"
       id="linearGradient952"
       x1="48.144531"
       y1="85.949219"
       x2="49.070312"
       y2="-37.079521"
       gradientUnits="userSpaceOnUse" />
  </defs>
  <sodipodi:namedview
     id="base"
     pagecolor="#ffffff"
     bordercolor="#666666"
     borderopacity="1.0"
     inkscape:pageopacity="0.0"
     inkscape:pageshadow="2"
     inkscape:zoom="1.4"
     inkscape:cx="312.95226"
     inkscape:cy="69.829386"
     inkscape:document-units="px"
     inkscape:current-layer="svg8"
     inkscape:document-rotation="0"
     showgrid="false"
     units="px"
     inkscape:window-width="1920"
     inkscape:window-height="1035"
     inkscape:window-x="1280"
     inkscape:window-y="23"
     inkscape:window-maximized="0">
    <inkscape:grid
       type="xygrid"
       id="grid839" />
  </sodipodi:namedview>
  <metadata
     id="metadata5">
    <rdf:RDF>
      <cc:Work
         rdf:about="">
        <dc:format>image/svg+xml</dc:format>
        <dc:type
           rdf:resource="http://purl.org/dc/dcmitype/StillImage" />
        <dc:title></dc:title>
      </cc:Work>
    </rdf:RDF>
  </metadata>
  <g
     inkscape:label="Layer 1"
     inkscape:groupmode="layer"
     id="layer1" />
  <path
     id="speaker0"
     style="fill:url(#linearGradient952);fill-opacity:1;stroke-width:3.77952754;stroke-miterlimit:4;stroke-dasharray:none;opacity:0.03"
     d="M -8.5722656 0 L -11.244141 2.671875 A 16.95496 16.95496 0 0 0 0.78125 7.6523438 A 16.95496 16.95496 0 0 0 12.808594 2.671875 L 10.136719 0 A 13.186771 13.186771 0 0 1 0.78125 3.8730469 A 13.190551 13.190551 0 0 1 -8.5722656 0 z M 86.427734 0 L 83.755859 2.671875 A 16.95496 16.95496 0 0 0 95.78125 7.6523438 A 16.95496 16.95496 0 0 0 107.80859 2.671875 L 105.13672 0 A 13.186771 13.186771 0 0 1 95.78125 3.8730469 A 13.190551 13.190551 0 0 1 86.427734 0 z M 38.619141 0.18554688 L 35.947266 2.8574219 A 16.95496 16.95496 0 0 0 47.972656 7.8378906 A 16.95496 16.95496 0 0 0 60 2.8574219 L 57.328125 0.18554688 A 13.186771 13.186771 0 0 1 47.972656 4.0585938 A 13.190551 13.190551 0 0 1 38.619141 0.18554688 z M 16.195312 5.9863281 A 20.723149 20.723149 0 0 1 1.4960938 12.076172 A 20.723149 20.723149 0 0 1 -13.207031 5.9902344 L -15.875 8.6582031 A 24.491338 24.491338 0 0 0 1.4960938 15.855469 A 24.491338 24.491338 0 0 0 18.867188 8.6582031 L 16.195312 5.9863281 z M 111.19531 5.9863281 A 20.723149 20.723149 0 0 1 96.496094 12.076172 A 20.723149 20.723149 0 0 1 81.792969 5.9902344 L 79.125 8.6582031 A 24.491338 24.491338 0 0 0 96.496094 15.855469 A 24.491338 24.491338 0 0 0 113.86719 8.6582031 L 111.19531 5.9863281 z M 63.386719 6.171875 A 20.723149 20.723149 0 0 1 48.6875 12.261719 A 20.723149 20.723149 0 0 1 33.984375 6.1757812 L 31.316406 8.84375 A 24.491338 24.491338 0 0 0 48.6875 16.041016 A 24.491338 24.491338 0 0 0 66.058594 8.84375 L 63.386719 6.171875 z M -18.546875 11.330078 L -21.21875 14.007812 A 32.023936 32.023936 0 0 0 1.4960938 23.417969 A 32.023936 32.023936 0 0 0 24.210938 14.007812 L 21.539062 11.330078 A 28.255747 28.255747 0 0 1 1.4960938 19.634766 C -6.3313077 19.634766 -13.418057 16.4589 -18.546875 11.330078 z M 76.453125 11.330078 L 73.78125 14.007812 A 32.023936 32.023936 0 0 0 96.496094 23.417969 A 32.023936 32.023936 0 0 0 119.21094 14.007812 L 116.53906 11.330078 A 28.255747 28.255747 0 0 1 96.496094 19.634766 C 88.668692 19.634766 81.58194 16.4589 76.453125 11.330078 z M 28.644531 11.515625 L 25.972656 14.193359 A 32.023936 32.023936 0 0 0 48.6875 23.603516 A 32.023936 32.023936 0 0 0 71.402344 14.193359 L 68.730469 11.515625 A 28.255747 28.255747 0 0 1 48.6875 19.820312 C 40.860102 19.820312 33.77335 16.644444 28.644531 11.515625 z M -33.283203 24.626953 L -35.955078 27.298828 A 16.95496 16.95496 0 0 0 -23.929688 32.279297 A 16.95496 16.95496 0 0 0 -11.902344 27.298828 L -14.574219 24.626953 A 13.186771 13.186771 0 0 1 -23.929688 28.5 A 13.190551 13.190551 0 0 1 -33.283203 24.626953 z M 61.716797 24.626953 L 59.044922 27.298828 A 16.95496 16.95496 0 0 0 71.070312 32.279297 A 16.95496 16.95496 0 0 0 83.097656 27.298828 L 80.425781 24.626953 A 13.186771 13.186771 0 0 1 71.070312 28.5 A 13.190551 13.190551 0 0 1 61.716797 24.626953 z M 13.908203 24.8125 L 11.236328 27.484375 A 16.95496 16.95496 0 0 0 23.261719 32.464844 A 16.95496 16.95496 0 0 0 35.289062 27.484375 L 32.617188 24.8125 A 13.186771 13.186771 0 0 1 23.261719 28.685547 A 13.190551 13.190551 0 0 1 13.908203 24.8125 z M -8.515625 30.613281 A 20.723149 20.723149 0 0 1 -23.214844 36.703125 A 20.723149 20.723149 0 0 1 -37.917969 30.617188 L -40.585938 33.285156 A 24.491338 24.491338 0 0 0 -23.214844 40.482422 A 24.491338 24.491338 0 0 0 -5.84375 33.285156 L -8.515625 30.613281 z M 86.484375 30.613281 A 20.723149 20.723149 0 0 1 71.785156 36.703125 A 20.723149 20.723149 0 0 1 57.082031 30.617188 L 54.414062 33.285156 A 24.491338 24.491338 0 0 0 71.785156 40.482422 A 24.491338 24.491338 0 0 0 89.15625 33.285156 L 86.484375 30.613281 z M 38.675781 30.798828 A 20.723149 20.723149 0 0 1 23.976562 36.888672 A 20.723149 20.723149 0 0 1 9.2734375 30.802734 L 6.6054688 33.470703 A 24.491338 24.491338 0 0 0 23.976562 40.667969 A 24.491338 24.491338 0 0 0 41.347656 33.470703 L 38.675781 30.798828 z M -43.257812 35.957031 L -45.929688 38.634766 A 32.023936 32.023936 0 0 0 -23.214844 48.044922 A 32.023936 32.023936 0 0 0 -0.5 38.634766 L -3.171875 35.957031 A 28.255747 28.255747 0 0 1 -23.214844 44.261719 C -31.042245 44.261719 -38.128994 41.085855 -43.257812 35.957031 z M 51.742188 35.957031 L 49.070312 38.634766 A 32.023936 32.023936 0 0 0 71.785156 48.044922 A 32.023936 32.023936 0 0 0 94.5 38.634766 L 91.828125 35.957031 A 28.255747 28.255747 0 0 1 71.785156 44.261719 C 63.957755 44.261719 56.871003 41.085855 51.742188 35.957031 z M 3.9335938 36.142578 L 1.2617188 38.820312 A 32.023936 32.023936 0 0 0 23.976562 48.230469 A 32.023936 32.023936 0 0 0 46.691406 38.820312 L 44.019531 36.142578 A 28.255747 28.255747 0 0 1 23.976562 44.447266 C 16.149165 44.447266 9.0624125 41.271398 3.9335938 36.142578 z M -9.4980469 47.314453 L -12.169922 49.986328 A 16.95496 16.95496 0 0 0 -0.14453125 54.966797 A 16.95496 16.95496 0 0 0 11.882812 49.986328 L 9.2109375 47.314453 A 13.186771 13.186771 0 0 1 -0.14453125 51.1875 A 13.190551 13.190551 0 0 1 -9.4980469 47.314453 z M 85.501953 47.314453 L 82.830078 49.986328 A 16.95496 16.95496 0 0 0 94.855469 54.966797 A 16.95496 16.95496 0 0 0 106.88281 49.986328 L 104.21094 47.314453 A 13.186771 13.186771 0 0 1 94.855469 51.1875 A 13.190551 13.190551 0 0 1 85.501953 47.314453 z M 37.691406 47.498047 L 35.019531 50.169922 A 16.95496 16.95496 0 0 0 47.044922 55.150391 A 16.95496 16.95496 0 0 0 59.072266 50.169922 L 56.400391 47.498047 A 13.186771 13.186771 0 0 1 47.044922 51.371094 A 13.190551 13.190551 0 0 1 37.691406 47.498047 z M 15.269531 53.300781 A 20.723149 20.723149 0 0 1 0.5703125 59.390625 A 20.723149 20.723149 0 0 1 -14.132812 53.304688 L -16.800781 55.972656 A 24.491338 24.491338 0 0 0 0.5703125 63.169922 A 24.491338 24.491338 0 0 0 17.941406 55.972656 L 15.269531 53.300781 z M 110.26953 53.300781 A 20.723149 20.723149 0 0 1 95.570312 59.390625 A 20.723149 20.723149 0 0 1 80.867188 53.304688 L 78.199219 55.972656 A 24.491338 24.491338 0 0 0 95.570312 63.169922 A 24.491338 24.491338 0 0 0 112.94141 55.972656 L 110.26953 53.300781 z M 62.458984 53.484375 A 20.723149 20.723149 0 0 1 47.759766 59.574219 A 20.723149 20.723149 0 0 1 33.056641 53.488281 L 30.388672 56.15625 A 24.491338 24.491338 0 0 0 47.759766 63.353516 A 24.491338 24.491338 0 0 0 65.130859 56.15625 L 62.458984 53.484375 z M -19.472656 58.644531 L -22.144531 61.322266 A 32.023936 32.023936 0 0 0 0.5703125 70.732422 A 32.023936 32.023936 0 0 0 23.285156 61.322266 L 20.613281 58.644531 A 28.255747 28.255747 0 0 1 0.5703125 66.949219 C -7.2570889 66.949219 -14.343837 63.773354 -19.472656 58.644531 z M 75.527344 58.644531 L 72.855469 61.322266 A 32.023936 32.023936 0 0 0 95.570312 70.732422 A 32.023936 32.023936 0 0 0 118.28516 61.322266 L 115.61328 58.644531 A 28.255747 28.255747 0 0 1 95.570312 66.949219 C 87.742911 66.949219 80.656159 63.773354 75.527344 58.644531 z M 27.716797 58.828125 L 25.044922 61.505859 A 32.023936 32.023936 0 0 0 47.759766 70.916016 A 32.023936 32.023936 0 0 0 70.474609 61.505859 L 67.802734 58.828125 A 28.255747 28.255747 0 0 1 47.759766 67.132812 C 39.932368 67.132812 32.845619 63.956944 27.716797 58.828125 z M -34.208984 71.939453 L -36.880859 74.611328 A 16.95496 16.95496 0 0 0 -24.855469 79.59375 A 16.95496 16.95496 0 0 0 -12.828125 74.611328 L -15.5 71.939453 A 13.186771 13.186771 0 0 1 -24.855469 75.8125 A 13.190551 13.190551 0 0 1 -34.208984 71.939453 z M 60.791016 71.941406 L 58.119141 74.613281 A 16.95496 16.95496 0 0 0 70.144531 79.59375 A 16.95496 16.95496 0 0 0 82.171875 74.613281 L 79.5 71.941406 A 13.186771 13.186771 0 0 1 70.144531 75.814453 A 13.190551 13.190551 0 0 1 60.791016 71.941406 z M 12.980469 72.125 L 10.308594 74.796875 A 16.95496 16.95496 0 0 0 22.333984 79.777344 A 16.95496 16.95496 0 0 0 34.361328 74.796875 L 31.689453 72.125 A 13.186771 13.186771 0 0 1 22.333984 75.998047 A 13.190551 13.190551 0 0 1 12.980469 72.125 z M -9.4414062 77.925781 A 20.723149 20.723149 0 0 1 -24.140625 84.017578 A 20.723149 20.723149 0 0 1 -38.84375 77.929688 L -41.511719 80.597656 A 24.491338 24.491338 0 0 0 -24.140625 87.796875 A 24.491338 24.491338 0 0 0 -6.7695312 80.597656 L -9.4414062 77.925781 z M 85.558594 77.927734 A 20.723149 20.723149 0 0 1 70.859375 84.017578 A 20.723149 20.723149 0 0 1 56.15625 77.931641 L 53.488281 80.599609 A 24.491338 24.491338 0 0 0 70.859375 87.796875 A 24.491338 24.491338 0 0 0 88.230469 80.599609 L 85.558594 77.927734 z M 37.748047 78.111328 A 20.723149 20.723149 0 0 1 23.048828 84.201172 A 20.723149 20.723149 0 0 1 8.3457031 78.115234 L 5.6777344 80.783203 A 24.491338 24.491338 0 0 0 23.048828 87.980469 A 24.491338 24.491338 0 0 0 40.419922 80.783203 L 37.748047 78.111328 z M -44.183594 83.271484 L -46.855469 85.949219 A 32.023936 32.023936 0 0 0 -24.140625 95.359375 A 32.023936 32.023936 0 0 0 -1.4257812 85.949219 L -4.0976562 83.271484 A 28.255747 28.255747 0 0 1 -24.140625 91.576172 C -31.968026 91.576172 -39.054779 88.400307 -44.183594 83.271484 z M 50.816406 83.271484 L 48.144531 85.949219 A 32.023936 32.023936 0 0 0 70.859375 95.359375 A 32.023936 32.023936 0 0 0 93.574219 85.949219 L 90.902344 83.271484 A 28.255747 28.255747 0 0 1 70.859375 91.576172 C 63.031974 91.576172 55.945221 88.400307 50.816406 83.271484 z M 3.0058594 83.455078 L 0.33398438 86.132812 A 32.023936 32.023936 0 0 0 23.048828 95.542969 A 32.023936 32.023936 0 0 0 45.763672 86.132812 L 43.091797 83.455078 A 28.255747 28.255747 0 0 1 23.048828 91.759766 C 15.221426 91.759766 8.1346782 88.583897 3.0058594 83.455078 z "
     transform="scale(0.26458334)" />
</svg>
